<mxfile host="app.diagrams.net" agent="Mozilla/5.0 (Windows NT 10.0; Win64; x64) AppleWebKit/537.36 (KHTML, like Gecko) Chrome/128.0.0.0 Safari/537.36" version="24.7.17">
  <diagram name="Página-1" id="-wEEcFG0b7fn-YQv-R09">
    <mxGraphModel dx="1079" dy="630" grid="1" gridSize="10" guides="1" tooltips="1" connect="1" arrows="1" fold="1" page="1" pageScale="1" pageWidth="827" pageHeight="1169" math="0" shadow="0">
      <root>
        <mxCell id="0" />
        <mxCell id="1" parent="0" />
        <mxCell id="u60aHccWPX-DePaDLazz-43" value="" style="rounded=0;whiteSpace=wrap;html=1;fillColor=default;opacity=70;strokeColor=none;" vertex="1" parent="1">
          <mxGeometry x="220" y="820" width="390" height="320" as="geometry" />
        </mxCell>
        <mxCell id="u60aHccWPX-DePaDLazz-25" value="" style="rounded=0;whiteSpace=wrap;html=1;" vertex="1" parent="1">
          <mxGeometry x="182" y="1803" width="470" height="270" as="geometry" />
        </mxCell>
        <mxCell id="2vVXnkczttUZU71332RF-1" value="" style="rounded=0;whiteSpace=wrap;html=1;" parent="1" vertex="1">
          <mxGeometry x="190" y="370" width="470" height="270" as="geometry" />
        </mxCell>
        <mxCell id="ENEwyYZW6DbON6CW3RZ9-21" value="" style="shape=ext;double=1;rounded=0;whiteSpace=wrap;html=1;" parent="1" vertex="1">
          <mxGeometry x="200" y="400" width="450" height="230" as="geometry" />
        </mxCell>
        <mxCell id="ENEwyYZW6DbON6CW3RZ9-2" value="" style="rounded=0;whiteSpace=wrap;html=1;" parent="1" vertex="1">
          <mxGeometry x="4" width="816" height="340" as="geometry" />
        </mxCell>
        <mxCell id="ENEwyYZW6DbON6CW3RZ9-7" value="Quem sou eu" style="text;strokeColor=none;fillColor=none;html=1;fontSize=24;fontStyle=1;verticalAlign=middle;align=center;" parent="1" vertex="1">
          <mxGeometry x="424" y="450" width="200" height="80" as="geometry" />
        </mxCell>
        <mxCell id="ENEwyYZW6DbON6CW3RZ9-9" value="&lt;font style=&quot;font-size: 18px;&quot;&gt;ADASDASD&lt;/font&gt;" style="text;strokeColor=none;fillColor=none;html=1;fontSize=18;fontStyle=1;verticalAlign=middle;align=center;" parent="1" vertex="1">
          <mxGeometry x="460" y="510" width="100" height="40" as="geometry" />
        </mxCell>
        <mxCell id="ENEwyYZW6DbON6CW3RZ9-10" value="Experience" style="text;strokeColor=none;fillColor=none;html=1;fontSize=24;fontStyle=1;verticalAlign=middle;align=center;flipH=1;flipV=1;" parent="1" vertex="1">
          <mxGeometry x="335" y="680" width="180" height="40" as="geometry" />
        </mxCell>
        <mxCell id="ENEwyYZW6DbON6CW3RZ9-14" value="Carreira Acadêmica" style="text;strokeColor=none;fillColor=none;html=1;fontSize=24;fontStyle=1;verticalAlign=middle;align=center;" parent="1" vertex="1">
          <mxGeometry x="282" y="1230" width="260" height="60" as="geometry" />
        </mxCell>
        <mxCell id="ENEwyYZW6DbON6CW3RZ9-15" value="" style="shape=ext;double=1;rounded=0;whiteSpace=wrap;html=1;" parent="1" vertex="1">
          <mxGeometry x="152" y="1320" width="520" height="100" as="geometry" />
        </mxCell>
        <mxCell id="ENEwyYZW6DbON6CW3RZ9-17" value="" style="shape=ext;double=1;rounded=0;whiteSpace=wrap;html=1;" parent="1" vertex="1">
          <mxGeometry x="152" y="1440" width="520" height="100" as="geometry" />
        </mxCell>
        <mxCell id="ENEwyYZW6DbON6CW3RZ9-20" value="Estilo Windows 95 boot" style="text;strokeColor=none;fillColor=none;html=1;fontSize=24;fontStyle=1;verticalAlign=middle;align=center;" parent="1" vertex="1">
          <mxGeometry x="264" y="150" width="300" height="70" as="geometry" />
        </mxCell>
        <mxCell id="ENEwyYZW6DbON6CW3RZ9-23" value="" style="shape=ext;double=1;rounded=0;whiteSpace=wrap;html=1;" parent="1" vertex="1">
          <mxGeometry x="20" y="15" width="760" height="50" as="geometry" />
        </mxCell>
        <mxCell id="ENEwyYZW6DbON6CW3RZ9-24" value="Menu" style="text;strokeColor=none;fillColor=none;html=1;fontSize=24;fontStyle=1;verticalAlign=middle;align=center;" parent="1" vertex="1">
          <mxGeometry x="375" y="20" width="100" height="40" as="geometry" />
        </mxCell>
        <mxCell id="2vVXnkczttUZU71332RF-2" value="" style="rounded=0;whiteSpace=wrap;html=1;" parent="1" vertex="1">
          <mxGeometry x="630" y="374" width="20" height="20" as="geometry" />
        </mxCell>
        <mxCell id="u60aHccWPX-DePaDLazz-1" value="" style="whiteSpace=wrap;html=1;aspect=fixed;" vertex="1" parent="1">
          <mxGeometry x="225" y="435" width="160" height="160" as="geometry" />
        </mxCell>
        <mxCell id="u60aHccWPX-DePaDLazz-9" value="Lógica" style="text;strokeColor=none;fillColor=none;html=1;fontSize=24;fontStyle=1;verticalAlign=middle;align=center;" vertex="1" parent="1">
          <mxGeometry x="357.5" y="850" width="136" height="70" as="geometry" />
        </mxCell>
        <mxCell id="u60aHccWPX-DePaDLazz-12" value="" style="whiteSpace=wrap;html=1;aspect=fixed;" vertex="1" parent="1">
          <mxGeometry x="235" y="842.5" width="85" height="85" as="geometry" />
        </mxCell>
        <mxCell id="u60aHccWPX-DePaDLazz-13" value="" style="shape=ext;double=1;rounded=0;whiteSpace=wrap;html=1;" vertex="1" parent="1">
          <mxGeometry x="152" y="1570" width="520" height="100" as="geometry" />
        </mxCell>
        <mxCell id="u60aHccWPX-DePaDLazz-14" value="ANO" style="text;strokeColor=none;align=center;fillColor=none;html=1;verticalAlign=middle;whiteSpace=wrap;rounded=0;" vertex="1" parent="1">
          <mxGeometry x="152" y="1320" width="140" height="100" as="geometry" />
        </mxCell>
        <mxCell id="u60aHccWPX-DePaDLazz-15" value="ANO" style="text;strokeColor=none;align=center;fillColor=none;html=1;verticalAlign=middle;whiteSpace=wrap;rounded=0;" vertex="1" parent="1">
          <mxGeometry x="152" y="1440" width="140" height="100" as="geometry" />
        </mxCell>
        <mxCell id="u60aHccWPX-DePaDLazz-16" value="ANO" style="text;strokeColor=none;align=center;fillColor=none;html=1;verticalAlign=middle;whiteSpace=wrap;rounded=0;" vertex="1" parent="1">
          <mxGeometry x="152" y="1570" width="140" height="100" as="geometry" />
        </mxCell>
        <mxCell id="u60aHccWPX-DePaDLazz-18" value="Projetos" style="text;strokeColor=none;fillColor=none;html=1;fontSize=24;fontStyle=1;verticalAlign=middle;align=center;" vertex="1" parent="1">
          <mxGeometry x="284" y="1730" width="260" height="60" as="geometry" />
        </mxCell>
        <mxCell id="u60aHccWPX-DePaDLazz-19" value="" style="shape=ext;double=1;rounded=0;whiteSpace=wrap;html=1;" vertex="1" parent="1">
          <mxGeometry x="193" y="1836" width="450" height="230" as="geometry" />
        </mxCell>
        <mxCell id="u60aHccWPX-DePaDLazz-22" value="" style="rounded=0;whiteSpace=wrap;html=1;" vertex="1" parent="1">
          <mxGeometry x="623" y="1810" width="20" height="20" as="geometry" />
        </mxCell>
        <mxCell id="u60aHccWPX-DePaDLazz-28" value="Foto projeto" style="rounded=0;whiteSpace=wrap;html=1;" vertex="1" parent="1">
          <mxGeometry x="214" y="1850" width="410" height="200" as="geometry" />
        </mxCell>
        <mxCell id="u60aHccWPX-DePaDLazz-29" value="" style="shape=flexArrow;endArrow=classic;html=1;rounded=0;" edge="1" parent="1">
          <mxGeometry width="50" height="50" relative="1" as="geometry">
            <mxPoint x="684" y="1949.5" as="sourcePoint" />
            <mxPoint x="754" y="1949.5" as="targetPoint" />
          </mxGeometry>
        </mxCell>
        <mxCell id="u60aHccWPX-DePaDLazz-30" value="" style="shape=flexArrow;endArrow=classic;html=1;rounded=0;" edge="1" parent="1">
          <mxGeometry width="50" height="50" relative="1" as="geometry">
            <mxPoint x="144" y="1950.5" as="sourcePoint" />
            <mxPoint x="74" y="1950.5" as="targetPoint" />
          </mxGeometry>
        </mxCell>
        <mxCell id="u60aHccWPX-DePaDLazz-31" value="" style="rounded=0;whiteSpace=wrap;html=1;" vertex="1" parent="1">
          <mxGeometry x="183" y="2160" width="470" height="270" as="geometry" />
        </mxCell>
        <mxCell id="u60aHccWPX-DePaDLazz-32" value="ASAAAA" style="shape=ext;double=1;rounded=0;whiteSpace=wrap;html=1;" vertex="1" parent="1">
          <mxGeometry x="194" y="2193" width="450" height="230" as="geometry" />
        </mxCell>
        <mxCell id="u60aHccWPX-DePaDLazz-33" value="" style="rounded=0;whiteSpace=wrap;html=1;" vertex="1" parent="1">
          <mxGeometry x="624" y="2167" width="20" height="20" as="geometry" />
        </mxCell>
        <mxCell id="u60aHccWPX-DePaDLazz-35" value="Contato" style="text;strokeColor=none;fillColor=none;html=1;fontSize=24;fontStyle=1;verticalAlign=middle;align=center;" vertex="1" parent="1">
          <mxGeometry x="287" y="2090" width="260" height="60" as="geometry" />
        </mxCell>
        <mxCell id="u60aHccWPX-DePaDLazz-36" value="Icone" style="ellipse;whiteSpace=wrap;html=1;aspect=fixed;" vertex="1" parent="1">
          <mxGeometry x="287" y="2340" width="50" height="50" as="geometry" />
        </mxCell>
        <mxCell id="u60aHccWPX-DePaDLazz-37" value="" style="ellipse;whiteSpace=wrap;html=1;aspect=fixed;" vertex="1" parent="1">
          <mxGeometry x="398" y="2340" width="55" height="55" as="geometry" />
        </mxCell>
        <mxCell id="u60aHccWPX-DePaDLazz-38" value="" style="ellipse;whiteSpace=wrap;html=1;aspect=fixed;" vertex="1" parent="1">
          <mxGeometry x="524" y="2340" width="55" height="55" as="geometry" />
        </mxCell>
        <mxCell id="u60aHccWPX-DePaDLazz-40" value="Footer" style="rounded=0;whiteSpace=wrap;html=1;" vertex="1" parent="1">
          <mxGeometry y="2620" width="820" height="120" as="geometry" />
        </mxCell>
        <mxCell id="u60aHccWPX-DePaDLazz-44" value="&lt;ul&gt;&lt;li&gt;XXXXXX&lt;/li&gt;&lt;/ul&gt;" style="text;strokeColor=none;fillColor=none;html=1;fontSize=24;fontStyle=1;verticalAlign=middle;align=center;" vertex="1" parent="1">
          <mxGeometry x="313.75" y="945" width="192.5" height="70" as="geometry" />
        </mxCell>
        <mxCell id="u60aHccWPX-DePaDLazz-45" value="&lt;ul&gt;&lt;li&gt;XXXXXX&lt;/li&gt;&lt;/ul&gt;" style="text;strokeColor=none;fillColor=none;html=1;fontSize=24;fontStyle=1;verticalAlign=middle;align=center;" vertex="1" parent="1">
          <mxGeometry x="313.75" y="1015" width="192.5" height="70" as="geometry" />
        </mxCell>
      </root>
    </mxGraphModel>
  </diagram>
</mxfile>
